# xmcd
#
# Track frame offsets:
#	150
#	21426
#	40648
#	57146
#	79838
#	97613
#	116470
#	132285
#	148941
#	165930
#	181622
#	198064
#	216327
#	230538
#	243454
#	261721
#
# Disc length: 3697 seconds
#
# Revision: 4
# Processed by: cddbd v1.5.1PL0 Copyright (c) Steve Scherf et al.
# Submitted via: audiograbber 1.83.01
#
DISCID=d40e6f10
DTITLE=1997-06 Country Radio - 1997-06 Country Radio
DYEAR=1997
DGENRE=Country
TTITLE0=Alabama - Dancin', Shaggin' On The Boulevard
TTITLE1=John Michael Montgomery - How Was I To Know
TTITLE2=The Buffalo Club - Nothin' Less Than Love
TTITLE3=Bob Carlisle - Butterfly Kisses
TTITLE4=Clint Black and Martina McBride - Still Holding On
TTITLE5=LeAnn Rimes - How Do I Live
TTITLE6=Tracy Lawrence - How A Cowgirl Says Goodbye
TTITLE7=Tammy Graham - Cool Water
TTITLE8=Diamond Rio - How Your Love makes Me Feel
TTITLE9=Mila Mason - That's The Kinda Love (That I'm Talkin About)
TTITLE10=Greg Holland - Exception To The Rule
TTITLE11=Sara Evans - Three Chords And The Truth
TTITLE12=MC Potts - I'm So Sorry
TTITLE13=Royal Wade Kimes - Guardian Angel
TTITLE14=Crystal Bernard - You're Gonna Miss A Whole Lotta Love
TTITLE15=Jim Wise - She Wants To Drive My Truck
EXTD=
EXTT0=
EXTT1=
EXTT2=
EXTT3=
EXTT4=
EXTT5=
EXTT6=
EXTT7=
EXTT8=
EXTT9=
EXTT10=
EXTT11=
EXTT12=
EXTT13=
EXTT14=
EXTT15=
PLAYORDER=
